<?xml version="1.0" encoding="iso-8859-1"?>
<!-- Generator: Adobe Illustrator 14.0.0, SVG Export Plug-In . SVG Version: 6.00 Build 43363)  -->
<!DOCTYPE svg PUBLIC "-//W3C//DTD SVG 1.1//EN" "http://www.w3.org/Graphics/SVG/1.1/DTD/svg11.dtd">
<svg version="1.1" id="&#x56FE;&#x5C42;_1" xmlns="http://www.w3.org/2000/svg" xmlns:xlink="http://www.w3.org/1999/xlink" x="0px"
	 y="0px" width="64px" height="64px" viewBox="0 0 64 64" style="enable-background:new 0 0 64 64;" xml:space="preserve">
<ellipse style="fill:#FFFFFF;" cx="15.903" cy="48.581" rx="0.119" ry="0.551"/>
<g>
	
		<radialGradient id="SVGID_1_" cx="-1563.0786" cy="-6431.7881" r="77.692" gradientTransform="matrix(-0.3125 0 0 -0.0188 -456.75 -61.3794)" gradientUnits="userSpaceOnUse">
		<stop  offset="0" style="stop-color:#A7B6BE"/>
		<stop  offset="0.1252" style="stop-color:#B6C2C9"/>
		<stop  offset="0.509" style="stop-color:#DDE3E6"/>
		<stop  offset="0.8139" style="stop-color:#F6F7F8"/>
		<stop  offset="1" style="stop-color:#FFFFFF"/>
	</radialGradient>
	<ellipse style="fill:url(#SVGID_1_);" cx="31.712" cy="59.538" rx="24.257" ry="1.462"/>
	<g>
		
			<radialGradient id="SVGID_2_" cx="895.3164" cy="1384.1533" r="4.6897" gradientTransform="matrix(0.6626 -0.7489 0.7489 0.6626 -1621.4662 -238.3953)" gradientUnits="userSpaceOnUse">
			<stop  offset="0.0055" style="stop-color:#603A17"/>
			<stop  offset="1" style="stop-color:#301911"/>
		</radialGradient>
		<path style="fill:url(#SVGID_2_);" d="M7.77,17.567c0,0-7.588-3.316-3.622-10.627C4.629,6.053,5.39,5.376,5.324,3.078
			c0,0,0.871,4.082,2.486,5.42c1.747,1.448,3.822,2.961,2.319,8.775L7.77,17.567z"/>
		
			<linearGradient id="SVGID_3_" gradientUnits="userSpaceOnUse" x1="894.3555" y1="1374.5391" x2="892.2498" y2="1382.7142" gradientTransform="matrix(0.6626 -0.7489 0.7489 0.6626 -1621.4662 -238.3953)">
			<stop  offset="0" style="stop-color:#53140B"/>
			<stop  offset="0.0126" style="stop-color:#5D1B11"/>
			<stop  offset="0.0709" style="stop-color:#873629"/>
			<stop  offset="0.1276" style="stop-color:#A84C3C"/>
			<stop  offset="0.1817" style="stop-color:#C05B49"/>
			<stop  offset="0.2319" style="stop-color:#CE6551"/>
			<stop  offset="0.2747" style="stop-color:#D36854"/>
			<stop  offset="0.3774" style="stop-color:#CA624F"/>
			<stop  offset="0.5474" style="stop-color:#B15140"/>
			<stop  offset="0.7634" style="stop-color:#883729"/>
			<stop  offset="1" style="stop-color:#53140B"/>
		</linearGradient>
		<path style="fill:url(#SVGID_3_);" d="M4.628,6.956c0.36-0.664,0.869-1.218,1.106-2.353C5.464,3.733,5.324,3.078,5.324,3.078
			C5.39,5.376,4.629,6.053,4.148,6.94c-2.56,4.717-0.308,7.771,1.611,9.344C3.911,14.52,2.186,11.459,4.628,6.956z"/>
		<g>
			
				<linearGradient id="SVGID_4_" gradientUnits="userSpaceOnUse" x1="875.916" y1="1407.5977" x2="877.664" y2="1408.7159" gradientTransform="matrix(0.6626 -0.7489 0.7489 0.6626 -1621.4662 -238.3953)">
				<stop  offset="0" style="stop-color:#9E3322"/>
				<stop  offset="0.0076" style="stop-color:#A23726"/>
				<stop  offset="0.0591" style="stop-color:#B84D3A"/>
				<stop  offset="0.1157" style="stop-color:#C75C49"/>
				<stop  offset="0.181" style="stop-color:#D06551"/>
				<stop  offset="0.2747" style="stop-color:#D36854"/>
				<stop  offset="0.4726" style="stop-color:#CA5F4B"/>
				<stop  offset="0.7988" style="stop-color:#B14634"/>
				<stop  offset="1" style="stop-color:#9E3322"/>
			</linearGradient>
			<path style="fill:url(#SVGID_4_);" d="M16.923,51.157l2.02,6.967c0,0,0.363,1.068,1.351,1.006c0,0,1.599,0.25,0.503-3.1
				l-1.734-6.611l-2.558-9.754l-6.17-23.518L7.05,17.116l6.82,23.517L16.923,51.157z"/>
		</g>
		
			<linearGradient id="SVGID_5_" gradientUnits="userSpaceOnUse" x1="890.1182" y1="1392.2988" x2="886.9713" y2="1389.9911" gradientTransform="matrix(0.6626 -0.7489 0.7489 0.6626 -1621.4662 -238.3953)">
			<stop  offset="0" style="stop-color:#E2E2CF"/>
			<stop  offset="0.022" style="stop-color:#CBCCBC"/>
			<stop  offset="0.0728" style="stop-color:#9C9E95"/>
			<stop  offset="0.1212" style="stop-color:#777976"/>
			<stop  offset="0.1659" style="stop-color:#5C5F5F"/>
			<stop  offset="0.2057" style="stop-color:#4C5052"/>
			<stop  offset="0.2364" style="stop-color:#464A4D"/>
			<stop  offset="0.2809" style="stop-color:#525557"/>
			<stop  offset="0.3608" style="stop-color:#717273"/>
			<stop  offset="0.3939" style="stop-color:#808080"/>
			<stop  offset="0.5495" style="stop-color:#A8ACBA"/>
			<stop  offset="0.7515" style="stop-color:#EEE6E7"/>
			<stop  offset="1" style="stop-color:#A8ACBA"/>
		</linearGradient>
		<polygon style="fill:url(#SVGID_5_);" points="7.815,19.761 11.082,18.998 10.334,16.147 7.05,17.116 		"/>
	</g>
	<radialGradient id="SVGID_6_" cx="35.0566" cy="39.1309" r="29.5539" gradientUnits="userSpaceOnUse">
		<stop  offset="0" style="stop-color:#F5DFB2"/>
		<stop  offset="0.3242" style="stop-color:#FCD367"/>
		<stop  offset="1" style="stop-color:#FBCF3A"/>
	</radialGradient>
	<path style="fill:url(#SVGID_6_);" d="M51.625,28.012c-5.967-10.201-19.126-13.604-29.394-7.599
		c-10.267,6.003-13.756,19.141-7.79,29.342c2.236,3.824,5.482,6.691,9.207,8.467c6.216,2.964,8.083-3.51,14.5-7.264
		c4.619-2.7,13.549-0.447,15.182-5.116C55.328,40.129,54.906,33.625,51.625,28.012z M26.1,52.962
		c-1.935,1.131-4.418,0.48-5.548-1.453c-1.131-1.934-0.479-4.418,1.455-5.548c1.933-1.13,4.417-0.481,5.548,1.452
		S28.033,51.831,26.1,52.962z"/>
	
		<radialGradient id="SVGID_7_" cx="-3073.6377" cy="888.0508" r="30.7385" gradientTransform="matrix(-0.8632 0.5048 0.5048 0.8632 -3060.9063 830.0797)" gradientUnits="userSpaceOnUse">
		<stop  offset="0" style="stop-color:#FFF0C9"/>
		<stop  offset="0.7198" style="stop-color:#FCD367"/>
	</radialGradient>
	<path style="fill:url(#SVGID_7_);" d="M27.622,45.222c9.697-0.255,19.335-1.675,26.638-3.056c0.766-4.722-0.041-9.716-2.635-14.154
		c-5.967-10.201-19.126-13.604-29.394-7.599C13.684,25.41,9.837,35.351,12.227,44.427c3.556,0.529,7.289,0.781,11.067,0.828
		L27.622,45.222z"/>
	
		<linearGradient id="SVGID_8_" gradientUnits="userSpaceOnUse" x1="-3088.0332" y1="864.4834" x2="-3052.52" y2="864.4834" gradientTransform="matrix(-0.8632 0.5048 0.5048 0.8632 -3060.9063 830.0797)">
		<stop  offset="0" style="stop-color:#FCD367"/>
		<stop  offset="0.4945" style="stop-color:#FFFFFF"/>
		<stop  offset="1" style="stop-color:#FCD367"/>
	</linearGradient>
	<path style="fill:url(#SVGID_8_);" d="M23.561,22.687c-6.609,3.865-10.228,10.878-10.048,17.992
		c-1.298-7.531,2.117-15.434,9.142-19.542c7.023-4.107,15.585-3.209,21.513,1.615C38.057,19.108,30.17,18.822,23.561,22.687z"/>
	<radialGradient id="SVGID_9_" cx="26.5605" cy="51.4639" r="6.3979" gradientUnits="userSpaceOnUse">
		<stop  offset="0" style="stop-color:#FCD367"/>
		<stop  offset="1" style="stop-color:#C19836"/>
	</radialGradient>
	<path style="fill:url(#SVGID_9_);" d="M22.175,46.198c1.435-0.838,3.162-0.733,4.458,0.129c-1.276-1.098-3.155-1.325-4.689-0.428
		c-1.755,1.025-2.449,3.163-1.719,4.995C19.76,49.114,20.508,47.173,22.175,46.198z"/>
	<g>
		<path style="fill:#121C11;" d="M21.558,42.247c0.359,0.068,0.053-0.438,0.167-0.516c0.229-0.156,1.354,1.379,2.311-0.687
			c0.323-0.698-0.271-1.206-0.078-1.434c0.646-0.762,0.803-1.679-0.164-3.019c-1.646-2.279-1.917-0.551-2.228-0.745
			c-0.237-0.147-0.099-0.499-0.469-0.666c-1.114-0.499-2.266,0.173-2.556,0.151c-0.822-0.063-2.131,0.508-2.218,0.981
			c-0.111,0.597-0.014,1.187-0.306,1.641c-0.28,0.435-0.568,3.05,1.311,3.996c1.069,0.538,1.253-0.144,1.564,0.008
			c0.311,0.152-0.286,0.928,1.008,1.168c1.07,0.199,1.404-0.316,1.313-0.878c-0.03-0.188-0.26-0.496-0.115-0.533
			C21.198,41.689,21.298,42.198,21.558,42.247z"/>
		<g>
			
				<radialGradient id="SVGID_10_" cx="-259.1006" cy="259.54" r="6.6986" gradientTransform="matrix(0.183 -0.9831 -0.9831 -0.183 322.2166 -168.7041)" gradientUnits="userSpaceOnUse">
				<stop  offset="0" style="stop-color:#528A3F"/>
				<stop  offset="0.1536" style="stop-color:#4E853D"/>
				<stop  offset="0.3328" style="stop-color:#437737"/>
				<stop  offset="0.524" style="stop-color:#31602C"/>
				<stop  offset="0.6742" style="stop-color:#1F4822"/>
				<stop  offset="0.9888" style="stop-color:#121C11"/>
			</radialGradient>
			<path style="fill:url(#SVGID_10_);" d="M21.167,35.114c0.392,0.105,0.232,0.518,0.469,0.666c0.312,0.195,0.583-1.535,2.228,0.745
				c0.967,1.339,0.81,2.257,0.164,3.019c-0.193,0.228,0.401,0.734,0.077,1.433c-0.956,2.065-2.08,0.53-2.31,0.688
				c-0.114,0.079,0.193,0.583-0.167,0.517c-0.259-0.049-0.359-0.559-0.46-0.533c-0.145,0.037,0.085,0.347,0.116,0.534
				c0.091,0.562-0.244,1.077-1.313,0.878c-1.294-0.241-0.697-1.016-1.008-1.168c-0.312-0.152-0.495,0.529-1.564-0.008
				c-1.879-0.947-1.591-3.562-1.312-3.996c0.292-0.455,0.194-1.044,0.305-1.641C16.392,36.247,16.674,33.903,21.167,35.114z"/>
			<path style="fill:#FFFFFF;" d="M17.398,40.962c0.097,0.036,0.079-0.064,0.063-0.11c-0.036-0.099-0.136-0.167-0.2-0.251
				c-0.072-0.098-0.1-0.181-0.191-0.313c-0.028-0.042-0.021-0.21-0.117-0.172c-0.056,0.021-0.037,0.122-0.005,0.168
				c0.055,0.079,0.072,0.171,0.081,0.302C17.042,40.784,17.303,40.925,17.398,40.962z"/>
			<path style="fill:#FFFFFF;" d="M17.291,40.339c0.073,0.031,0.159-0.01,0.149-0.082c-0.009-0.063-0.115-0.139-0.172-0.133
				C17.137,40.138,17.222,40.31,17.291,40.339z"/>
			<path style="fill:#FFFFFF;" d="M20.058,42.556c0.011-0.057,0.13-0.016,0.273-0.023c0.158-0.01,0.331-0.037,0.324-0.004
				C20.63,42.669,20.044,42.626,20.058,42.556z"/>
			<path style="fill:#FFFFFF;" d="M19.588,42.139c0.116,0.007,0.261,0.228,0.095,0.202C19.517,42.315,19.416,42.127,19.588,42.139z"
				/>
			<path style="fill:#FFFFFF;" d="M19.074,41.812c0.098,0.043,0.103-0.125,0.031-0.131C19.027,41.675,19.028,41.792,19.074,41.812z"
				/>
			<path style="fill:#FFFFFF;" d="M23.323,41.54c-0.116,0.102-0.346,0.184-0.334,0.117c0.004-0.025,0.162-0.07,0.288-0.193
				c0.134-0.13,0.215-0.336,0.238-0.284C23.528,41.21,23.47,41.412,23.323,41.54z"/>
			<path style="fill:#FFFFFF;" d="M22.834,41.614c0.059-0.041,0.098-0.116,0.075-0.148c-0.039-0.059-0.252,0.039-0.256,0.139
				C22.651,41.655,22.784,41.648,22.834,41.614z"/>
			<path style="fill:#FFFFFF;" d="M23.988,39.296c-0.023,0.121-0.105-0.05-0.107-0.082c-0.008-0.104,0.04-0.207,0.09-0.297
				c0.045-0.08,0.081-0.174,0.073-0.268c-0.006-0.072-0.013-0.295,0.038-0.278c0.104,0.035,0.079,0.335,0.058,0.482
				C24.119,38.999,24.024,39.101,23.988,39.296z"/>
			<path style="fill:#FFFFFF;" d="M23.57,36.94c-0.059-0.119,0.004-0.293-0.07-0.4c-0.09-0.133-0.257-0.154-0.388-0.32
				c-0.081-0.103-0.115-0.228-0.22-0.315c-0.134-0.11-0.353-0.075-0.252,0.069c0.128,0.188,0.381,0.177,0.486,0.354
				c0.049,0.084,0.03,0.166,0.123,0.248c0.07,0.063,0.145,0.048,0.201,0.129C23.489,36.76,23.474,36.923,23.57,36.94z"/>
			<path style="fill:#FFFFFF;" d="M17.498,39.766c0.148,0.396,0.284,0.563,0.277,0.601c-0.014,0.07-0.182-0.229-0.311-0.574
				c-0.15-0.402-0.192-0.754-0.171-0.74C17.336,39.083,17.354,39.38,17.498,39.766z"/>
			<path style="fill:#FFFFFF;" d="M17.92,40.616c-0.055-0.011-0.14-0.133-0.036-0.113C17.988,40.522,17.976,40.626,17.92,40.616z"/>
			<path style="fill:#FFFFFF;" d="M17.782,40.462c0.01-0.056,0.11-0.016,0.069,0.014C17.811,40.503,17.782,40.462,17.782,40.462z"/>
			<path style="fill:#FFFFFF;" d="M17.315,38.589c-0.028,0.243-0.002,0.365-0.016,0.383c-0.025,0.033-0.034-0.166-0.009-0.379
				c0.028-0.247,0.1-0.439,0.106-0.426C17.412,38.194,17.343,38.352,17.315,38.589z"/>
		</g>
	</g>
	<g>
		
			<radialGradient id="SVGID_11_" cx="-96.1309" cy="365.9775" r="7.244" gradientTransform="matrix(0.5426 -0.84 0.84 0.5426 -212.6746 -246.4817)" gradientUnits="userSpaceOnUse">
			<stop  offset="0.0225" style="stop-color:#4265AE"/>
			<stop  offset="0.1935" style="stop-color:#425EAA"/>
			<stop  offset="0.3876" style="stop-color:#4150A1"/>
			<stop  offset="0.414" style="stop-color:#3F4D9C"/>
			<stop  offset="0.882" style="stop-color:#1C164A"/>
		</radialGradient>
		<path style="fill:url(#SVGID_11_);" d="M46.234,27.33c1.281,0.718,1.838,2.027,2.111,2.247c0.771,0.625,1.443,2.208,1.129,2.696
			c-0.398,0.613-0.971,1.047-1.092,1.688c-0.115,0.611-2.025,3.137-4.453,2.412c-1.381-0.415-0.977-1.164-1.375-1.288
			c-0.396-0.124-0.518,1.048-1.848,0.188c-1.102-0.711-0.969-1.439-0.424-1.854c0.182-0.14,0.641-0.222,0.543-0.373
			c-0.066-0.104-0.576,0.259-0.842,0.085c-0.371-0.238,0.314-0.426,0.279-0.589c-0.07-0.327-2.324,0.085-1.453-2.514
			c0.295-0.879,1.234-0.83,1.254-1.189c0.066-1.201,0.688-2.133,2.643-2.505C42.707,26.333,44.043,26.103,46.234,27.33z"/>
		<path style="fill:#FFFFFF;" d="M48.051,33.246c0.053-0.237-0.287-0.319-0.256-0.033C47.811,33.343,48.008,33.442,48.051,33.246z"
			/>
		<path style="fill:#FFFFFF;" d="M39.029,31.169c0.018,0.184,0.152,0.447,0.195,0.379c0.016-0.027-0.084-0.197-0.092-0.407
			c-0.01-0.225,0.09-0.473,0.027-0.447C39.125,30.709,39.006,30.934,39.029,31.169z"/>
		<path style="fill:#FFFFFF;" d="M39.395,31.637c-0.016-0.085,0.012-0.182,0.059-0.191c0.082-0.019,0.188,0.243,0.109,0.335
			C39.523,31.824,39.41,31.709,39.395,31.637z"/>
		<path style="fill:#FFFFFF;" d="M40.305,28.654c-0.08,0.125,0.133,0.043,0.162,0.017c0.092-0.084,0.137-0.214,0.166-0.333
			c0.027-0.109,0.074-0.218,0.156-0.294c0.066-0.059,0.256-0.249,0.199-0.275c-0.119-0.054-0.348,0.228-0.451,0.374
			C40.436,28.285,40.436,28.454,40.305,28.654z"/>
		<path style="fill:#FFFFFF;" d="M48.662,31.029c-0.008,0.105,0.07,0.171,0.115,0.286c0.029-0.139-0.072-0.223-0.107-0.335
			C48.67,30.98,48.666,30.998,48.662,31.029z"/>
		<path style="fill:#FFFFFF;" d="M47.188,28.604c0.176,0.113,0.299,0.257,0.371,0.422c-0.107-0.06-0.17-0.095-0.25-0.192
			C47.27,28.789,47.246,28.712,47.188,28.604z"/>
	</g>
	<g>
		<path style="fill:#8D191C;" d="M29.814,24.275c0.299-0.237,0.263,0.376,0.405,0.394c0.288,0.033,0.576-1.929,2.462-0.492
			c0.636,0.486,0.337,1.241,0.626,1.357c0.966,0.387,1.557,1.155,1.318,2.86c-0.404,2.899-1.496,1.439-1.688,1.771
			c-0.146,0.252,0.152,0.508-0.108,0.842c-0.782,1.003-2.171,0.944-2.426,1.105c-0.726,0.46-2.209,0.569-2.521,0.177
			c-0.394-0.496-0.59-1.085-1.08-1.361c-0.469-0.264-2.009-2.531-0.739-4.318c0.722-1.016,1.223-0.477,1.436-0.769
			c0.212-0.292-0.714-0.715,0.359-1.566c0.888-0.704,1.447-0.393,1.636,0.168c0.064,0.188,0.003,0.585,0.154,0.548
			C29.755,24.965,29.599,24.446,29.814,24.275z"/>
		<g>
			
				<radialGradient id="SVGID_12_" cx="-115.0137" cy="296.5156" r="6.9849" gradientTransform="matrix(0.6214 0.7835 -0.7835 0.6214 333.528 -65.6576)" gradientUnits="userSpaceOnUse">
				<stop  offset="0.0225" style="stop-color:#EC2224"/>
				<stop  offset="0.1921" style="stop-color:#E12123"/>
				<stop  offset="0.4928" style="stop-color:#C31D20"/>
				<stop  offset="0.887" style="stop-color:#92181B"/>
				<stop  offset="1" style="stop-color:#831619"/>
			</radialGradient>
			<path style="fill:url(#SVGID_12_);" d="M27.82,24.138c0.909-0.677,1.448-0.394,1.637,0.167c0.063,0.188,0.003,0.585,0.154,0.549
				c0.104-0.026-0.051-0.544,0.165-0.715c0.298-0.237,0.262,0.377,0.404,0.394c0.288,0.034,0.576-1.929,2.461-0.493
				c0.639,0.486,0.337,1.242,0.628,1.357c0.965,0.387,1.557,1.155,1.318,2.86c-0.404,2.899-1.496,1.44-1.688,1.77
				c-0.146,0.252,0.153,0.509-0.107,0.843c-0.783,1.001-2.17,0.944-2.427,1.105c-0.726,0.459-2.209,0.569-2.521,0.177
				c-0.393-0.496-0.589-1.085-1.08-1.362c-0.469-0.264-2.008-2.531-0.738-4.318C26.026,26.473,26.68,24.988,27.82,24.138z"/>
			<path style="fill:#FFFFFF;" d="M26.475,27.322c0.071-0.081,0.104,0.021,0.111,0.07c0.016,0.109-0.044,0.22-0.061,0.328
				c-0.02,0.126-0.004,0.215-0.024,0.382c-0.005,0.052,0.083,0.204-0.024,0.216c-0.061,0.007-0.093-0.096-0.086-0.152
				c0.012-0.101-0.017-0.194-0.073-0.318C26.233,27.659,26.405,27.403,26.475,27.322z"/>
			<path style="fill:#FFFFFF;" d="M27.441,30.717c0.18,0.107,0.341-0.147,0.099-0.201C27.429,30.492,27.291,30.627,27.441,30.717z"
				/>
			<path style="fill:#FFFFFF;" d="M31.647,23.902c-0.155-0.035-0.408,0-0.364,0.055c0.017,0.021,0.184-0.013,0.359,0.039
				c0.187,0.055,0.362,0.205,0.358,0.146C31.998,24.108,31.846,23.949,31.647,23.902z"/>
			<path style="fill:#FFFFFF;" d="M31.163,24.073c0.074,0.009,0.146,0.059,0.142,0.1c-0.009,0.072-0.252,0.087-0.304-0.003
				C30.973,24.125,31.099,24.066,31.163,24.073z"/>
			<path style="fill:#FFFFFF;" d="M33.354,25.646c-0.081-0.101-0.072,0.096-0.059,0.127c0.043,0.099,0.138,0.171,0.227,0.229
				c0.082,0.053,0.158,0.121,0.197,0.21c0.03,0.069,0.133,0.278,0.171,0.239c0.078-0.082-0.091-0.347-0.182-0.473
				C33.619,25.855,33.48,25.809,33.354,25.646z"/>
			<path style="fill:#FFFFFF;" d="M34.115,28.019c0.004,0.139,0.146,0.267,0.131,0.404c-0.02,0.164-0.162,0.266-0.201,0.482
				c-0.025,0.134,0.005,0.265-0.05,0.398c-0.068,0.167-0.287,0.242-0.266,0.059c0.027-0.235,0.266-0.348,0.276-0.562
				c0.005-0.101-0.055-0.167-0.009-0.289c0.034-0.092,0.11-0.114,0.123-0.216C34.129,28.225,34.036,28.081,34.115,28.019z"/>
			<path style="fill:#FFFFFF;" d="M29.086,31.833c-0.084-0.037-0.159,0.01-0.265,0.015c0.105,0.063,0.202,0.002,0.304,0.005
				C29.125,31.853,29.113,31.845,29.086,31.833z"/>
			<path style="fill:#FFFFFF;" d="M31.483,31.299c-0.142,0.111-0.292,0.172-0.449,0.187c0.079-0.071,0.125-0.113,0.227-0.152
				C31.309,31.314,31.379,31.315,31.483,31.299z"/>
			<path style="fill:#FFFFFF;" d="M27.124,27.386c-0.047,0.036-0.064,0.191,0.021,0.122C27.231,27.44,27.169,27.349,27.124,27.386z"
				/>
			<path style="fill:#FFFFFF;" d="M27.071,27.595c0.037,0.046,0.109-0.04,0.057-0.045C27.078,27.544,27.071,27.595,27.071,27.595z"
				/>
			<path style="fill:#FFFFFF;" d="M27.554,29.547c-0.145-0.21-0.181-0.336-0.201-0.345c-0.04-0.019,0.049,0.168,0.176,0.353
				c0.147,0.214,0.306,0.356,0.306,0.342C27.834,29.863,27.694,29.752,27.554,29.547z"/>
		</g>
	</g>
</g>
</svg>
