<?xml version="1.0" encoding="utf-8"?>
<!-- Generator: Adobe Illustrator 14.0.0, SVG Export Plug-In  -->
<!DOCTYPE svg PUBLIC "-//W3C//DTD SVG 1.1//EN" "http://www.w3.org/Graphics/SVG/1.1/DTD/svg11.dtd" [
	<!ENTITY ns_flows "http://ns.adobe.com/Flows/1.0/">
]>
<svg version="1.1"
	 xmlns="http://www.w3.org/2000/svg" xmlns:xlink="http://www.w3.org/1999/xlink" xmlns:a="http://ns.adobe.com/AdobeSVGViewerExtensions/3.0/"
	 x="0px" y="0px" width="64px" height="64px" viewBox="-1 -11 64 64" enable-background="new -1 -11 64 64" xml:space="preserve">
<defs>
</defs>
<linearGradient id="SVGID_1_" gradientUnits="userSpaceOnUse" x1="-45.6777" y1="1986.8613" x2="240.5861" y2="1698.1398" gradientTransform="matrix(0.1646 0 0 0.1646 -4.1765 -273.8098)">
	<stop  offset="0" style="stop-color:#F4CFAF"/>
	<stop  offset="0.3542" style="stop-color:#E1B080"/>
	<stop  offset="1" style="stop-color:#C07A2E"/>
</linearGradient>
<polygon fill="url(#SVGID_1_)" points="15.74,2.87 46.817,11.722 46.817,16.9 15.74,8.047 "/>
<linearGradient id="SVGID_2_" gradientUnits="userSpaceOnUse" x1="432.2793" y1="1872.2783" x2="160.7203" y2="1789.95" gradientTransform="matrix(0.1646 0 0 0.1646 -4.1765 -273.8098)">
	<stop  offset="0" style="stop-color:#F4CFAF"/>
	<stop  offset="0.3542" style="stop-color:#E1B080"/>
	<stop  offset="1" style="stop-color:#C07A2E"/>
</linearGradient>
<polygon fill="url(#SVGID_2_)" points="3.853,26.014 15.74,2.87 15.74,8.047 3.853,31.194 "/>
<linearGradient id="SVGID_3_" gradientUnits="userSpaceOnUse" x1="-31.7124" y1="1888.8428" x2="250.8506" y2="1666.4773" gradientTransform="matrix(0.1646 0 0 0.1646 -4.1765 -273.8098)">
	<stop  offset="0" style="stop-color:#EC6B30"/>
	<stop  offset="1" style="stop-color:#BB272E"/>
</linearGradient>
<polygon fill="url(#SVGID_3_)" points="15.996,3.18 25.238,18.591 25.238,23.771 15.996,8.359 "/>
<linearGradient id="SVGID_4_" gradientUnits="userSpaceOnUse" x1="569.6602" y1="2011.1201" x2="130.9732" y2="1690.3988" gradientTransform="matrix(0.1646 0 0 0.1646 -4.1765 -273.8098)">
	<stop  offset="0" style="stop-color:#EC6B30"/>
	<stop  offset="1" style="stop-color:#BB272E"/>
</linearGradient>
<polygon fill="url(#SVGID_4_)" points="25.238,18.591 45.934,11.707 45.934,16.888 25.238,23.771 "/>
<linearGradient id="SVGID_5_" gradientUnits="userSpaceOnUse" x1="527.3584" y1="1892.2578" x2="258.3175" y2="1769.4094" gradientTransform="matrix(0.1646 0 0 0.1646 -4.1765 -273.8098)">
	<stop  offset="0" style="stop-color:#EC6B30"/>
	<stop  offset="1" style="stop-color:#BB272E"/>
</linearGradient>
<polygon fill="url(#SVGID_5_)" points="40.867,22.688 46.433,11.85 46.433,17.029 40.867,27.867 "/>
<linearGradient id="SVGID_6_" gradientUnits="userSpaceOnUse" x1="505.2275" y1="2099.1055" x2="66.6302" y2="1778.4497" gradientTransform="matrix(0.1646 0 0 0.1646 -4.1765 -273.8098)">
	<stop  offset="0" style="stop-color:#EC6B30"/>
	<stop  offset="1" style="stop-color:#BB272E"/>
</linearGradient>
<polygon fill="url(#SVGID_6_)" points="4.431,25.514 24.932,18.692 24.932,23.871 4.431,30.691 "/>
<linearGradient id="SVGID_7_" gradientUnits="userSpaceOnUse" x1="422.665" y1="1938.749" x2="148.6715" y2="1771.649" gradientTransform="matrix(0.1646 0 0 0.1646 -4.1765 -273.8098)">
	<stop  offset="0" style="stop-color:#EC6B30"/>
	<stop  offset="1" style="stop-color:#BB272E"/>
</linearGradient>
<polygon fill="url(#SVGID_7_)" points="30.101,26.268 40.867,22.688 40.867,27.867 30.101,31.446 "/>
<linearGradient id="SVGID_8_" gradientUnits="userSpaceOnUse" x1="494.6191" y1="1963.7881" x2="225.6559" y2="1840.9751" gradientTransform="matrix(0.1646 0 0 0.1646 -4.1765 -273.8098)">
	<stop  offset="0" style="stop-color:#EC6B30"/>
	<stop  offset="1" style="stop-color:#BB272E"/>
</linearGradient>
<polygon fill="url(#SVGID_8_)" points="34.76,34.581 40.697,23.017 40.697,28.197 34.76,39.762 "/>
<linearGradient id="SVGID_9_" gradientUnits="userSpaceOnUse" x1="-30.6362" y1="1969.4658" x2="121.755" y2="1821.99" gradientTransform="matrix(0.1646 0 0 0.1646 -4.1765 -273.8098)">
	<stop  offset="0" style="stop-color:#EC6B30"/>
	<stop  offset="1" style="stop-color:#BB272E"/>
</linearGradient>
<polygon fill="url(#SVGID_9_)" points="4.239,25.888 18.392,29.916 18.392,35.097 4.239,31.068 "/>
<linearGradient id="SVGID_10_" gradientUnits="userSpaceOnUse" x1="43.8633" y1="2033.2295" x2="194.9808" y2="1869.8253" gradientTransform="matrix(0.1646 0 0 0.1646 -4.1765 -273.8098)">
	<stop  offset="0" style="stop-color:#EC6B30"/>
	<stop  offset="1" style="stop-color:#BB272E"/>
</linearGradient>
<polygon fill="url(#SVGID_10_)" points="19.233,30.156 34.76,34.581 34.76,39.762 19.233,35.337 "/>
<linearGradient id="SVGID_11_" gradientUnits="userSpaceOnUse" x1="701.5059" y1="2020.6504" x2="297.3073" y2="1820.3956" gradientTransform="matrix(0.164 0 0 0.1654 -3.9992 -273.6537)">
	<stop  offset="0" style="stop-color:#F4CFAF"/>
	<stop  offset="0.3542" style="stop-color:#E1B080"/>
	<stop  offset="1" style="stop-color:#C07A2E"/>
</linearGradient>
<polygon fill="url(#SVGID_11_)" points="36.506,37.914 50.468,10.49 50.468,15.692 36.506,43.118 "/>
<linearGradient id="SVGID_12_" gradientUnits="userSpaceOnUse" x1="-73.751" y1="2043.3623" x2="359.9722" y2="1679.6743" gradientTransform="matrix(0.164 0 0 0.1654 -3.9992 -273.6537)">
	<stop  offset="0" style="stop-color:#F4CFAF"/>
	<stop  offset="0.3542" style="stop-color:#E1B080"/>
	<stop  offset="1" style="stop-color:#C07A2E"/>
</linearGradient>
<polygon fill="url(#SVGID_12_)" points="0,27.425 36.506,37.914 36.506,43.118 0,32.629 "/>
<linearGradient id="SVGID_13_" gradientUnits="userSpaceOnUse" x1="14.3535" y1="1696.5547" x2="-296.5004" y2="1558.9427" gradientTransform="matrix(0.164 0 0 0.1654 -3.9992 -273.6537)">
	<stop  offset="0" style="stop-color:#F4CFAF"/>
	<stop  offset="0.3542" style="stop-color:#E1B080"/>
	<stop  offset="1" style="stop-color:#C07A2E"/>
</linearGradient>
<path fill="url(#SVGID_13_)" d="M13.963,0L0,27.425l0,0l36.506,10.489l0,0L50.468,10.49l0,0L13.963,0z M34.792,35.03L3.838,26.137
	l0,0L15.678,2.884l0,0l30.953,8.893l0,0L34.792,35.03z"/>
<linearGradient id="SVGID_14_" gradientUnits="userSpaceOnUse" x1="150.1387" y1="1713.6738" x2="-518.2854" y2="1407.7216" gradientTransform="matrix(0.1646 0 0 0.1646 -4.1765 -273.8098)">
	<stop  offset="0" style="stop-color:#EC6B30"/>
	<stop  offset="1" style="stop-color:#BB272E"/>
</linearGradient>
<polygon fill="url(#SVGID_14_)" points="45.934,11.707 15.996,3.18 15.996,3.18 25.238,18.591 25.238,18.591 "/>
<linearGradient id="SVGID_15_" gradientUnits="userSpaceOnUse" x1="143.959" y1="1727.1416" x2="-524.4467" y2="1421.1978" gradientTransform="matrix(0.1646 0 0 0.1646 -4.1765 -273.8098)">
	<stop  offset="0" style="stop-color:#EC6B30"/>
	<stop  offset="1" style="stop-color:#BB272E"/>
</linearGradient>
<polygon fill="url(#SVGID_15_)" points="35.681,15.402 30.101,26.268 30.101,26.268 40.867,22.688 40.867,22.688 46.433,11.85 
	46.433,11.85 46.375,11.833 46.375,11.833 35.662,15.397 35.662,15.397 "/>
<linearGradient id="SVGID_16_" gradientUnits="userSpaceOnUse" x1="117.918" y1="1784.0391" x2="-550.4611" y2="1478.1074" gradientTransform="matrix(0.1646 0 0 0.1646 -4.1765 -273.8098)">
	<stop  offset="0" style="stop-color:#EC6B30"/>
	<stop  offset="1" style="stop-color:#BB272E"/>
</linearGradient>
<polygon fill="url(#SVGID_16_)" points="34.76,34.581 40.697,23.017 40.697,23.017 19.233,30.156 19.233,30.156 "/>
<linearGradient id="SVGID_17_" gradientUnits="userSpaceOnUse" x1="101.3662" y1="1820.2031" x2="-567.0274" y2="1514.2648" gradientTransform="matrix(0.1646 0 0 0.1646 -4.1765 -273.8098)">
	<stop  offset="0" style="stop-color:#EC6B30"/>
	<stop  offset="1" style="stop-color:#BB272E"/>
</linearGradient>
<polygon fill="url(#SVGID_17_)" points="4.26,25.844 4.239,25.888 4.239,25.888 18.392,29.916 18.392,29.916 14.005,22.604 
	14.005,22.604 "/>
<linearGradient id="SVGID_18_" gradientUnits="userSpaceOnUse" x1="124.874" y1="1768.8457" x2="-543.5204" y2="1462.907" gradientTransform="matrix(0.1646 0 0 0.1646 -4.1765 -273.8098)">
	<stop  offset="0" style="stop-color:#EC6B30"/>
	<stop  offset="1" style="stop-color:#BB272E"/>
</linearGradient>
<polygon fill="url(#SVGID_18_)" points="15.773,3.426 4.431,25.514 4.431,25.514 24.932,18.692 24.932,18.692 "/>
<linearGradient id="SVGID_19_" gradientUnits="userSpaceOnUse" x1="657.2422" y1="1897.4883" x2="226.1626" y2="1737.8286" gradientTransform="matrix(0.1646 0 0 0.1646 -21.2976 -279.1877)">
	<stop  offset="0" style="stop-color:#EC6F31"/>
	<stop  offset="1" style="stop-color:#AA2E2C"/>
</linearGradient>
<polygon fill="url(#SVGID_19_)" points="33.863,4.577 28.398,15.223 28.398,20.401 33.863,9.757 "/>
<linearGradient id="SVGID_20_" gradientUnits="userSpaceOnUse" x1="165.085" y1="1879.7139" x2="453.7577" y2="1651.2328" gradientTransform="matrix(0.1646 0 0 0.1646 -21.2976 -279.1877)">
	<stop  offset="0" style="stop-color:#EC6F31"/>
	<stop  offset="1" style="stop-color:#AA2E2C"/>
</linearGradient>
<polygon fill="url(#SVGID_20_)" points="28.398,15.223 23.984,7.866 23.984,13.043 28.398,20.401 "/>
<linearGradient id="SVGID_21_" gradientUnits="userSpaceOnUse" x1="287.6709" y1="1738.0938" x2="-195.2026" y2="1453.0393" gradientTransform="matrix(0.1646 0 0 0.1646 -21.2976 -279.1877)">
	<stop  offset="0" style="stop-color:#EC6F31"/>
	<stop  offset="1" style="stop-color:#AA2E2C"/>
</linearGradient>
<path fill="url(#SVGID_21_)" d="M33.863,4.577l-5.465,10.646l0,0l-4.415-7.357l0,0L33.863,4.577z"/>
<linearGradient id="SVGID_22_" gradientUnits="userSpaceOnUse" x1="215.1426" y1="1924.0586" x2="595.8848" y2="1669.821" gradientTransform="matrix(0.1646 0 0 0.1646 -17.6765 -270.7375)">
	<stop  offset="0" style="stop-color:#EC6F31"/>
	<stop  offset="1" style="stop-color:#AA2E2C"/>
</linearGradient>
<polygon fill="url(#SVGID_22_)" points="51.063,26.384 46.552,18.866 46.552,24.044 51.063,31.564 "/>
<linearGradient id="SVGID_23_" gradientUnits="userSpaceOnUse" x1="705.9199" y1="1950.0977" x2="284.5116" y2="1719.1222" gradientTransform="matrix(0.1646 0 0 0.1646 -17.6765 -270.7375)">
	<stop  offset="0" style="stop-color:#EC6F31"/>
	<stop  offset="1" style="stop-color:#AA2E2C"/>
</linearGradient>
<polygon fill="url(#SVGID_23_)" points="61.819,22.808 51.063,26.384 51.063,31.564 61.819,27.986 "/>
<linearGradient id="SVGID_24_" gradientUnits="userSpaceOnUse" x1="399.3174" y1="1745.9434" x2="23.3476" y2="1489.1528" gradientTransform="matrix(0.1646 0 0 0.1646 -17.6765 -270.7375)">
	<stop  offset="0" style="stop-color:#EC6F31"/>
	<stop  offset="1" style="stop-color:#AA2E2C"/>
</linearGradient>
<path fill="url(#SVGID_24_)" d="M57.312,15.288l4.508,7.52l0,0l-10.757,3.576l0,0l-4.511-7.518l0,0L57.312,15.288z"/>
<linearGradient id="SVGID_25_" gradientUnits="userSpaceOnUse" x1="249.7793" y1="1807.3018" x2="-72.4367" y2="1666.3074" gradientTransform="matrix(0.1646 0 0 0.1646 7.4573 -277.8708)">
	<stop  offset="0" style="stop-color:#EC6F31"/>
	<stop  offset="1" style="stop-color:#AA2E2C"/>
</linearGradient>
<polygon fill="url(#SVGID_25_)" points="30.194,16.868 33.863,9.757 33.863,8.226 36.249,8.92 32.845,16.05 "/>
<linearGradient id="SVGID_26_" gradientUnits="userSpaceOnUse" x1="-31.6899" y1="-225.499" x2="-20.8907" y2="-253.594" gradientTransform="matrix(0.9999 0.013 -0.013 0.9999 66.5896 271.6584)">
	<stop  offset="0.0056" style="stop-color:#365729"/>
	<stop  offset="1" style="stop-color:#365628"/>
</linearGradient>
<path fill="url(#SVGID_26_)" d="M54.726,32.395l0.01-0.01c0,0,2.745-2.981,0.622-5.254c-1.522-1.629-4.689-0.853-6.545-0.252
	c1.499-1.461,4.705-4.671,1.942-7.506c-2.816-2.892-6.813,0.756-6.813,0.756c-0.228,0.191-0.402-0.002-0.402-0.002l-0.009-0.009
	c0,0-3.61-3.759-6.565-0.879c-2.955,2.878,0.342,5.803,1.71,7.624c-1.887-0.622-5.218-1.57-6.75,0.105
	c-2.1,2.294,0.671,5.244,0.671,5.244c0.214,0.207,0.038,0.401,0.038,0.401l-0.007,0.01c0,0-1.913,3.114,0.598,4.951
	c2.373,1.736,5.378,0.825,7.149-0.918c1.158-1.141,2.026-2.254,2.788-3.308c0.027-0.038,0.377,5.832-2.142,11.485
	c-0.055,0.123,1.907,0.277,2.007-0.067c1.197-4.151,0.891-11.491,0.952-11.406c0.82,1.122,1.748,2.316,3.018,3.54
	c1.789,1.727,4.803,2.606,7.159,0.846c2.49-1.862,0.533-4.95,0.533-4.95C54.519,32.551,54.726,32.395,54.726,32.395z"/>
<radialGradient id="SVGID_27_" cx="-17.2041" cy="-252.1567" r="31.3336" gradientTransform="matrix(0.9999 0.013 -0.013 0.9999 66.5896 271.6584)" gradientUnits="userSpaceOnUse">
	<stop  offset="0" style="stop-color:#5B863C"/>
	<stop  offset="1" style="stop-color:#005E38"/>
</radialGradient>
<path fill="url(#SVGID_27_)" d="M46.368,18.817c-1.307,0.529-2.273,1.399-2.312,1.436l-0.004,0.002l-0.002,0.001
	c-0.257,0.217-0.521,0.108-0.637-0.017l0.01,0.01l-0.013-0.013l-0.004-0.002c-0.019-0.02-1.832-1.88-3.872-1.914
	c-0.905-0.015-1.731,0.334-2.453,1.037c-1.073,1.046-1.385,2.182-0.951,3.471c0.381,1.134,1.245,2.176,2.007,3.096
	c0.247,0.297,0.478,0.577,0.673,0.836l0.323,0.431l-0.512-0.168c-0.966-0.319-2.233-0.699-3.468-0.802
	c-1.43-0.119-2.475,0.169-3.105,0.86c-0.82,0.896-0.963,2.005-0.425,3.292c0.413,0.987,1.087,1.714,1.094,1.721l-0.005-0.005
	c0.117,0.112,0.159,0.236,0.157,0.347c-0.001,0.111-0.046,0.209-0.101,0.275c0,0.001-0.002,0.003-0.002,0.004
	c0-0.001,0.002-0.003,0.002-0.003s-0.002,0.002-0.003,0.004c-0.038,0.064-0.469,0.801-0.617,1.729
	c-0.032,0.2-0.05,0.393-0.052,0.577c-0.014,0.998,0.398,1.808,1.226,2.415c1.061,0.775,2.331,1.057,3.673,0.814
	c1.178-0.211,2.366-0.839,3.259-1.718c1.208-1.19,2.079-2.327,2.77-3.285l0.297-0.369c0,0,0.018,0.375,0.015,0.681
	c-0.002,0.056-0.003,0.119-0.005,0.196c-0.004,0.225-0.015,0.599-0.038,1.112c-0.04,0.846-0.126,2.181-0.302,3.742
	c-0.302,2.667-0.483,3.212-1.747,6.132c0.155,0.028,0.435,0.06,0.771,0.064c0.582,0.008,0.806-0.069,0.854-0.104
	c0.949-3.31,0.784-7.478,0.888-10.262l0.032-0.8l0.049-0.732c0.722,0.995,2.003,2.641,3.276,3.869
	c0.902,0.871,2.098,1.484,3.277,1.686c1.345,0.228,2.61-0.067,3.662-0.854c0.976-0.729,1.358-1.739,1.139-2.997
	c-0.17-0.963-0.641-1.72-0.645-1.727l0.004,0.007c-0.073-0.104-0.101-0.203-0.099-0.293c0.001-0.146,0.079-0.266,0.16-0.333
	c0.001,0,0.001,0,0.001,0c-0.001,0-0.002,0.001-0.002,0.001s0.001-0.001,0.004-0.004c0.047-0.051,0.684-0.767,1.073-1.726
	c0.198-0.488,0.3-0.95,0.307-1.384c0.008-0.715-0.246-1.354-0.764-1.907c-1.078-1.154-3.222-1.224-6.368-0.208l-0.599,0.219
	l0.429-0.501c0.659-0.641,1.885-1.836,2.536-3.189c0.34-0.71,0.484-1.389,0.429-2.017c-0.065-0.735-0.41-1.429-1.024-2.061
	c-0.612-0.628-1.332-0.981-2.14-1.051C47.841,18.384,47.126,18.511,46.368,18.817z M54.616,32.264L54.616,32.264
	c0.003-0.002,0.005-0.003,0.008-0.005C54.624,32.259,54.621,32.261,54.616,32.264z M32.76,32.725c0,0,0.002-0.002,0.004-0.006
	c0.003-0.003,0.004-0.004,0.006-0.006C32.766,32.716,32.763,32.721,32.76,32.725z"/>
<radialGradient id="SVGID_28_" cx="-25.6719" cy="-240.7373" r="10.673" gradientTransform="matrix(0.9999 0.013 -0.013 0.9999 66.5896 271.6584)" gradientUnits="userSpaceOnUse">
	<stop  offset="0.0056" style="stop-color:#B8D233"/>
	<stop  offset="0.3456" style="stop-color:#A1C438"/>
	<stop  offset="1" style="stop-color:#78AA41"/>
</radialGradient>
<path fill="url(#SVGID_28_)" d="M54.298,34.477c-0.166-0.647-0.466-1.14-0.47-1.145l0.004,0.005l0,0
	c-0.151-0.229-0.229-0.486-0.227-0.748c0.006-0.34,0.151-0.672,0.396-0.907c0.088-0.101,0.596-0.702,0.904-1.463
	c0.158-0.388,0.239-0.749,0.244-1.075c0.007-0.495-0.168-0.928-0.534-1.319c-0.379-0.404-0.989-0.623-1.818-0.649
	c-0.961-0.03-2.193,0.193-3.66,0.665c-0.032,0.013-3.61,1.322-3.61,1.322l2.21-2.588l0.676-0.724
	c0.622-0.606,1.469-1.432,2.055-2.65c0.274-0.57,0.392-1.101,0.351-1.574c-0.049-0.538-0.313-1.058-0.789-1.545
	c-0.472-0.485-0.997-0.746-1.605-0.799c-0.52-0.044-1.104,0.063-1.736,0.319c-1.169,0.473-2.054,1.27-2.063,1.278l-0.015,0.014
	l-0.015,0.012c-0.298,0.251-0.665,0.361-1.031,0.31c-0.267-0.037-0.523-0.164-0.716-0.347l0,0l-0.031-0.028L42.8,20.823
	c-0.025-0.025-1.615-1.628-3.278-1.655c-0.682-0.011-1.287,0.25-1.849,0.797c-0.84,0.82-1.068,1.62-0.74,2.596
	c0.33,0.983,1.141,1.961,1.857,2.824c0.252,0.305,0.489,0.593,0.697,0.868l1.942,2.587l-3.072-1.014
	c-0.78-0.259-1.762-0.555-2.74-0.698c2.2,1.799,5.315,3.473,9.358,3.575C49.646,30.822,52.57,32.707,54.298,34.477z"/>
<path fill="#79AB41" d="M54.298,34.477c-1.728-1.77-4.651-3.654-9.322-3.773c-4.043-0.103-7.158-1.776-9.358-3.575
	c-0.179-0.027-0.356-0.048-0.534-0.063c-1.154-0.098-1.966,0.101-2.411,0.587c-0.243,0.267-0.514,0.654-0.521,1.252
	c-0.004,0.317,0.066,0.695,0.256,1.144c0.346,0.831,0.926,1.466,0.932,1.472v0.001c0.248,0.257,0.383,0.585,0.378,0.928
	c-0.003,0.26-0.086,0.515-0.237,0.726c-0.067,0.121-0.383,0.708-0.494,1.407c-0.025,0.157-0.039,0.31-0.041,0.455
	c-0.009,0.725,0.27,1.271,0.88,1.717c0.868,0.637,1.914,0.867,3.022,0.668c1.014-0.184,2.04-0.727,2.815-1.488
	c1.165-1.148,2.007-2.251,2.679-3.179l0.013-0.018l1.263-1.573l0.908,1.25c0.504,0.694,1.824,2.45,3.178,3.756
	c0.784,0.756,1.815,1.288,2.832,1.461c1.11,0.188,2.153-0.054,3.014-0.697c0.719-0.537,0.976-1.229,0.811-2.176
	C54.341,34.66,54.32,34.568,54.298,34.477z"/>
<path fill="#C8D92C" d="M54.074,31.614c0.002,0,0.002-0.001,0.003-0.002c-0.008,0.008-0.018,0.016-0.018,0.016
	S54.066,31.622,54.074,31.614z"/>
<path fill="#C8D92C" d="M54.092,31.6c0,0-0.008,0.008-0.013,0.012l-0.002,0.002c0.005-0.004,0.01-0.008,0.016-0.012L54.092,31.6z"/>
<path fill="#C8D92C" d="M33.434,33.232c-0.006,0.008-0.01,0.015-0.016,0.022l0,0c0,0,0.006-0.007,0.008-0.01
	C33.426,33.243,33.432,33.236,33.434,33.232z"/>
<path fill="#C8D92C" d="M33.453,33.209c-0.004,0.006-0.008,0.011-0.012,0.017C33.448,33.216,33.451,33.212,33.453,33.209
	c0.002,0,0.002,0,0.002-0.002C33.455,33.209,33.453,33.209,33.453,33.209z"/>
<radialGradient id="SVGID_29_" cx="-26.6201" cy="-240.6938" r="19.1608" gradientTransform="matrix(0.9999 0.013 -0.013 0.9999 66.5896 271.6584)" gradientUnits="userSpaceOnUse">
	<stop  offset="0" style="stop-color:#C2D951"/>
	<stop  offset="0.3868" style="stop-color:#BED96D"/>
	<stop  offset="1" style="stop-color:#B8DA96"/>
</radialGradient>
<path fill="url(#SVGID_29_)" d="M49.743,23.704c0,0,0.706-1.471,0.009-2.529c-0.967-1.468-2.753-1.17-2.342-1.447
	c0.412-0.277,1.927-0.223,2.716,1.024C50.804,21.823,50.154,23.428,49.743,23.704z"/>
<radialGradient id="SVGID_30_" cx="-27.5283" cy="-240.7837" r="20.6251" gradientTransform="matrix(0.9999 0.013 -0.013 0.9999 66.5896 271.6584)" gradientUnits="userSpaceOnUse">
	<stop  offset="0" style="stop-color:#C2D951"/>
	<stop  offset="0.3868" style="stop-color:#BED96D"/>
	<stop  offset="1" style="stop-color:#B8DA96"/>
</radialGradient>
<path fill="url(#SVGID_30_)" d="M54.244,30.885c0,0,0.237-0.597,0.226-1.442c-0.023-1.566-1.184-1.932-0.908-1.927
	c0.688,0.01,1.333,0.806,1.365,1.651C54.959,30.012,54.37,30.872,54.244,30.885z"/>
<radialGradient id="SVGID_31_" cx="-27.2231" cy="-241.1563" r="14.6173" gradientTransform="matrix(0.9999 0.013 -0.013 0.9999 66.5896 271.6584)" gradientUnits="userSpaceOnUse">
	<stop  offset="0" style="stop-color:#C2D951"/>
	<stop  offset="0.3868" style="stop-color:#BED96D"/>
	<stop  offset="1" style="stop-color:#B8DA96"/>
</radialGradient>
<path fill="url(#SVGID_31_)" d="M39.933,35.362c-0.249,0.391-1.378,1.374-3.036,1.708c-1.66,0.336-2.64-0.313-2.924-0.523
	c-0.666-0.485-0.645-1.102-0.421-0.858c0.45,0.494,1.428,1.372,3.688,0.912C38.898,36.265,39.933,35.362,39.933,35.362z"/>
</svg>
