<?xml version="1.0" encoding="utf-8"?>
<!-- Generator: Adobe Illustrator 14.0.0, SVG Export Plug-In . SVG Version: 6.00 Build 43363)  -->
<!DOCTYPE svg PUBLIC "-//W3C//DTD SVG 1.1//EN" "http://www.w3.org/Graphics/SVG/1.1/DTD/svg11.dtd">
<svg version="1.1" id="图层_1" xmlns="http://www.w3.org/2000/svg" xmlns:xlink="http://www.w3.org/1999/xlink" x="0px" y="0px"
	 width="64px" height="64px" viewBox="0 0 64 64" enable-background="new 0 0 64 64" xml:space="preserve">
<path fill="#FFFFFF" d="M33.754,25.718l-0.111,0.019c-1.026,0.177-2.074,0.248-3.117,0.248h-2.41v0.035
	c0,0.553,0.452,1.004,1.004,1.004h1.278v9.753H29.12c-0.553,0-1.004,0.451-1.004,1.004v0.029h7.771v-0.029
	c0-0.553-0.453-1.004-1.006-1.004h-1.127V25.718z"/>
<path fill="#FFFFFF" d="M30.285,22.757c0,0.525,0.176,0.984,0.554,1.355c0.36,0.367,0.802,0.553,1.318,0.553
	c0.514,0,0.956-0.185,1.325-0.542c0.373-0.377,0.545-0.837,0.545-1.367c0-0.524-0.182-0.969-0.557-1.337
	c-0.363-0.357-0.804-0.548-1.313-0.548c-0.516,0-0.954,0.194-1.314,0.562C30.477,21.799,30.285,22.241,30.285,22.757z"/>
<path fill="#FFFFFF" d="M32,14.679c-8.26,0-14.958,6.698-14.958,14.958c0,8.259,6.699,14.957,14.958,14.957
	s14.958-6.697,14.958-14.958C46.958,21.376,40.26,14.679,32,14.679L32,14.679z M32,17.295c6.814,0,12.341,5.526,12.341,12.341
	c0,6.815-5.526,12.341-12.341,12.341c-6.815,0-12.34-5.523-12.34-12.341C19.66,22.821,25.186,17.295,32,17.295z"/>
</svg>
