<?xml version="1.0" encoding="utf-8"?>
<!-- Generator: Adobe Illustrator 14.0.0, SVG Export Plug-In . SVG Version: 6.00 Build 43363)  -->
<!DOCTYPE svg PUBLIC "-//W3C//DTD SVG 1.1//EN" "http://www.w3.org/Graphics/SVG/1.1/DTD/svg11.dtd">
<svg version="1.1" id="图层_1" xmlns="http://www.w3.org/2000/svg" xmlns:xlink="http://www.w3.org/1999/xlink" x="0px" y="0px"
	 width="64px" height="64px" viewBox="0 0 64 64" enable-background="new 0 0 64 64" xml:space="preserve">
<path fill="#FFFFFF" d="M31.988,43.277l0.925-0.924L43.58,31.684c2.595-2.593,3.73-6.078,2.35-9.582
	c-0.443-1.124-1.121-2.151-1.978-3.005c-0.854-0.854-1.882-1.533-3.005-1.976c-3.108-1.226-6.313-0.469-8.826,1.652l-0.135,0.114
	l-0.134-0.114c-2.515-2.121-5.718-2.878-8.824-1.652c-1.124,0.444-2.152,1.122-3.006,1.976s-1.533,1.881-1.976,3.005
	c-1.383,3.504-0.247,6.989,2.348,9.582L31.988,43.277L31.988,43.277z M31.988,22.546l1.226-1.227c1.82-1.82,4.295-2.747,6.785-1.766
	c0.788,0.311,1.505,0.794,2.104,1.394c0.6,0.599,1.082,1.316,1.394,2.105c0.981,2.489,0.056,4.964-1.767,6.784l-9.744,9.744
	l-9.744-9.744c-1.821-1.82-2.748-4.295-1.767-6.784c0.312-0.789,0.795-1.506,1.394-2.105c0.599-0.599,1.315-1.081,2.105-1.394
	c2.489-0.981,4.963-0.054,6.785,1.766L31.988,22.546z"/>
</svg>
