<?xml version="1.0" encoding="utf-8"?>
<!-- Generator: Adobe Illustrator 14.0.0, SVG Export Plug-In  -->
<!DOCTYPE svg PUBLIC "-//W3C//DTD SVG 1.1//EN" "http://www.w3.org/Graphics/SVG/1.1/DTD/svg11.dtd" [
	<!ENTITY ns_flows "http://ns.adobe.com/Flows/1.0/">
]>
<svg version="1.1"
	 xmlns="http://www.w3.org/2000/svg" xmlns:xlink="http://www.w3.org/1999/xlink" xmlns:a="http://ns.adobe.com/AdobeSVGViewerExtensions/3.0/"
	 x="0px" y="0px" width="64px" height="64px" viewBox="-3 -3 64 64" enable-background="new -3 -3 64 64" xml:space="preserve">
<defs>
</defs>
<linearGradient id="SVGID_1_" gradientUnits="userSpaceOnUse" x1="27.4263" y1="47.7734" x2="27.4263" y2="4.5998">
	<stop  offset="0" style="stop-color:#EC9014"/>
	<stop  offset="0.1447" style="stop-color:#EE9B16"/>
	<stop  offset="0.4838" style="stop-color:#F1B11A"/>
	<stop  offset="0.7805" style="stop-color:#F3BE1D"/>
	<stop  offset="1" style="stop-color:#F4C21F"/>
</linearGradient>
<circle fill="url(#SVGID_1_)" cx="27.426" cy="27.426" r="27.426"/>
<linearGradient id="SVGID_2_" gradientUnits="userSpaceOnUse" x1="27.4263" y1="42.8506" x2="27.4263" y2="10.1219">
	<stop  offset="0" style="stop-color:#C4C4C4"/>
	<stop  offset="0.1686" style="stop-color:#D3D3D3"/>
	<stop  offset="0.4983" style="stop-color:#ECEBEC"/>
	<stop  offset="0.7866" style="stop-color:#FBFBFB"/>
	<stop  offset="1" style="stop-color:#FFFFFF"/>
</linearGradient>
<circle fill="url(#SVGID_2_)" stroke="#696A6A" cx="27.426" cy="27.426" r="20.791"/>
<path fill="#040000" d="M25.695,14.129h-1.019v-3.837c-0.372,0.348-0.81,0.605-1.314,0.772V10.14
	c0.265-0.088,0.554-0.252,0.865-0.495c0.312-0.243,0.526-0.526,0.641-0.85h0.828V14.129z"/>
<path fill="#040000" d="M30.657,13.183v0.946h-3.571c0.04-0.357,0.155-0.697,0.349-1.017c0.193-0.32,0.575-0.745,1.145-1.274
	c0.459-0.428,0.74-0.717,0.844-0.869c0.142-0.21,0.21-0.419,0.21-0.624c0-0.228-0.06-0.401-0.182-0.523s-0.291-0.184-0.506-0.184
	c-0.213,0-0.382,0.065-0.508,0.192c-0.125,0.129-0.198,0.341-0.218,0.638l-1.015-0.101c0.061-0.56,0.251-0.962,0.57-1.206
	c0.319-0.245,0.716-0.367,1.195-0.367c0.525,0,0.938,0.141,1.236,0.425c0.299,0.281,0.45,0.633,0.45,1.054
	c0,0.239-0.044,0.466-0.13,0.683c-0.085,0.216-0.222,0.442-0.407,0.679c-0.124,0.158-0.345,0.384-0.666,0.678
	c-0.322,0.294-0.525,0.49-0.611,0.586c-0.086,0.097-0.156,0.191-0.208,0.283H30.657z"/>
<path fill="#040000" d="M28.686,41.968l-0.986,0.108c-0.024-0.203-0.086-0.353-0.188-0.449c-0.102-0.098-0.233-0.146-0.395-0.146
	c-0.216,0-0.397,0.096-0.545,0.29c-0.148,0.192-0.242,0.594-0.28,1.207c0.253-0.301,0.568-0.45,0.945-0.45
	c0.425,0,0.789,0.162,1.094,0.486c0.303,0.324,0.454,0.742,0.454,1.253c0,0.544-0.159,0.979-0.478,1.309
	c-0.319,0.328-0.729,0.494-1.229,0.494c-0.536,0-0.976-0.21-1.322-0.625c-0.346-0.418-0.519-1.101-0.519-2.05
	c0-0.974,0.18-1.677,0.541-2.105c0.36-0.43,0.828-0.645,1.402-0.645c0.403,0,0.738,0.112,1.002,0.338
	C28.444,41.208,28.612,41.536,28.686,41.968z M26.377,44.189c0,0.332,0.075,0.586,0.227,0.767c0.153,0.18,0.328,0.269,0.523,0.269
	c0.189,0,0.345-0.074,0.472-0.221c0.125-0.146,0.188-0.388,0.188-0.725c0-0.345-0.066-0.599-0.203-0.761
	c-0.134-0.159-0.303-0.239-0.507-0.239c-0.195,0-0.361,0.075-0.497,0.229S26.377,43.89,26.377,44.189z"/>
<g>
	<g>
		<path fill="#040000" d="M9.625,29.736l0.986-0.109c0.024,0.201,0.087,0.35,0.188,0.446c0.102,0.098,0.235,0.146,0.402,0.146
			c0.211,0,0.389-0.097,0.537-0.291c0.148-0.193,0.242-0.594,0.284-1.202c-0.257,0.297-0.576,0.445-0.961,0.445
			c-0.418,0-0.778-0.162-1.082-0.484c-0.303-0.323-0.454-0.742-0.454-1.259c0-0.538,0.16-0.972,0.479-1.302
			c0.321-0.33,0.729-0.495,1.224-0.495c0.539,0,0.981,0.208,1.327,0.625c0.345,0.417,0.518,1.102,0.518,2.057
			c0,0.971-0.179,1.671-0.54,2.101c-0.36,0.431-0.829,0.646-1.406,0.646c-0.416,0-0.752-0.11-1.008-0.331
			C9.863,30.506,9.699,30.175,9.625,29.736z M11.931,27.511c0-0.33-0.076-0.584-0.227-0.765c-0.151-0.18-0.325-0.271-0.523-0.271
			c-0.189,0-0.346,0.074-0.47,0.222c-0.125,0.149-0.187,0.393-0.187,0.731c0,0.344,0.068,0.594,0.202,0.755
			c0.137,0.16,0.306,0.242,0.507,0.242c0.197,0,0.361-0.078,0.496-0.234C11.863,28.038,11.931,27.811,11.931,27.511z"/>
	</g>
</g>
<path fill="#040000" d="M42.524,29.559l0.985-0.119c0.03,0.25,0.115,0.442,0.254,0.575c0.136,0.133,0.304,0.2,0.498,0.2
	c0.212,0,0.389-0.081,0.532-0.239c0.144-0.16,0.216-0.375,0.216-0.646c0-0.256-0.07-0.46-0.206-0.608
	c-0.139-0.15-0.305-0.226-0.504-0.226c-0.131,0-0.287,0.025-0.47,0.077l0.113-0.831c0.275,0.007,0.486-0.053,0.633-0.179
	c0.144-0.127,0.215-0.296,0.215-0.505c0-0.181-0.052-0.321-0.158-0.428c-0.107-0.105-0.246-0.16-0.424-0.16
	c-0.175,0-0.323,0.061-0.445,0.182c-0.123,0.122-0.199,0.297-0.226,0.529l-0.938-0.159c0.065-0.321,0.161-0.579,0.295-0.77
	c0.129-0.193,0.316-0.343,0.549-0.454c0.237-0.11,0.501-0.166,0.794-0.166c0.501,0,0.901,0.161,1.203,0.479
	c0.249,0.261,0.373,0.555,0.373,0.884c0,0.466-0.256,0.838-0.764,1.116c0.304,0.065,0.546,0.212,0.729,0.438
	c0.185,0.227,0.272,0.501,0.272,0.824c0,0.467-0.17,0.864-0.51,1.191c-0.338,0.33-0.766,0.493-1.271,0.493
	c-0.481,0-0.88-0.139-1.196-0.415C42.759,30.366,42.574,30.005,42.524,29.559z"/>
<circle opacity="0.43" fill="#040000" cx="18.284" cy="13.491" r="1.106"/>
<circle opacity="0.43" fill="#040000" cx="13.713" cy="19.686" r="1.106"/>
<path opacity="0.43" fill="#040000" d="M15.04,36.198c0,0.612-0.496,1.107-1.105,1.107c-0.611,0-1.106-0.495-1.106-1.107
	c0-0.608,0.495-1.105,1.106-1.105C14.544,35.093,15.04,35.59,15.04,36.198z"/>
<circle opacity="0.43" fill="#040000" cx="19.463" cy="41.359" r="1.106"/>
<circle opacity="0.43" fill="#040000" cx="35.019" cy="41.95" r="1.105"/>
<circle opacity="0.43" fill="#040000" cx="40.328" cy="36.789" r="1.106"/>
<circle opacity="0.43" fill="#040000" cx="41.949" cy="19.686" r="1.106"/>
<circle opacity="0.43" fill="#040000" cx="36.788" cy="14.229" r="1.106"/>
<path opacity="0.44" fill="#F4CE21" d="M27.38,52.472c-14.383,0-26.08-11.462-26.477-25.75c-0.006,0.249-0.018,0.499-0.018,0.75
	c0,14.632,11.862,26.494,26.495,26.494c14.634,0,26.498-11.861,26.498-26.494c0-0.251-0.013-0.501-0.02-0.75
	C53.46,41.01,41.764,52.472,27.38,52.472z"/>
<polygon fill="#040000" points="26.493,27.063 14.893,42.365 27.174,27.822 "/>
<polygon fill="#B43D22" points="27.316,14.708 26.541,14.819 26.209,27.205 27.757,27.426 "/>
<linearGradient id="SVGID_3_" gradientUnits="userSpaceOnUse" x1="26.7065" y1="28.8638" x2="26.7065" y2="26.7634">
	<stop  offset="0" style="stop-color:#EC9014"/>
	<stop  offset="0.1447" style="stop-color:#EE9B16"/>
	<stop  offset="0.4838" style="stop-color:#F1B11A"/>
	<stop  offset="0.7805" style="stop-color:#F3BE1D"/>
	<stop  offset="1" style="stop-color:#F4C21F"/>
</linearGradient>
<circle fill="url(#SVGID_3_)" cx="26.707" cy="27.482" r="1.382"/>
<linearGradient id="SVGID_4_" gradientUnits="userSpaceOnUse" x1="45.1104" y1="58.2422" x2="45.1104" y2="32.8495">
	<stop  offset="0" style="stop-color:#BF1A20"/>
	<stop  offset="1" style="stop-color:#E4590E"/>
</linearGradient>
<path fill="url(#SVGID_4_)" d="M59.068,50.91l-6.155-6.155l6.155-6.155c0.383-0.383,0.383-1.004,0-1.387l-6.416-6.416
	c-0.383-0.383-1.004-0.383-1.387,0l-6.156,6.154l-6.154-6.154c-0.383-0.383-1.004-0.383-1.388,0l-6.415,6.416
	c-0.383,0.383-0.383,1.004,0,1.387l6.155,6.155l-6.155,6.155c-0.383,0.383-0.383,1.005,0,1.388l6.415,6.415
	c0.384,0.383,1.005,0.383,1.388,0l6.154-6.156l6.156,6.156c0.383,0.383,1.004,0.383,1.387,0l6.416-6.415
	C59.451,51.915,59.451,51.293,59.068,50.91z"/>
</svg>
