<?xml version="1.0" encoding="utf-8"?>
<!-- Generator: Adobe Illustrator 14.0.0, SVG Export Plug-In  -->
<!DOCTYPE svg PUBLIC "-//W3C//DTD SVG 1.1//EN" "http://www.w3.org/Graphics/SVG/1.1/DTD/svg11.dtd" [
	<!ENTITY ns_flows "http://ns.adobe.com/Flows/1.0/">
]>
<svg version="1.1"
	 xmlns="http://www.w3.org/2000/svg" xmlns:xlink="http://www.w3.org/1999/xlink" xmlns:a="http://ns.adobe.com/AdobeSVGViewerExtensions/3.0/"
	 x="0px" y="0px" width="64px" height="64px" viewBox="-1 -1 64 64" enable-background="new -1 -1 64 64" xml:space="preserve">
<defs>
</defs>
<linearGradient id="SVGID_1_" gradientUnits="userSpaceOnUse" x1="30.4897" y1="60.9863" x2="30.4897" y2="4.882813e-004">
	<stop  offset="0" style="stop-color:#040000"/>
	<stop  offset="1" style="stop-color:#5B5B69"/>
</linearGradient>
<path fill="url(#SVGID_1_)" d="M30.489,0C13.677,0,0,13.681,0,30.495c0,16.811,13.677,30.492,30.489,30.492
	c16.813,0,30.49-13.681,30.49-30.492C60.979,13.681,47.302,0,30.489,0z"/>
<radialGradient id="SVGID_2_" cx="30.4893" cy="30.4917" r="27.9519" gradientUnits="userSpaceOnUse">
	<stop  offset="0" style="stop-color:#F5CB1F"/>
	<stop  offset="1" style="stop-color:#F5A917"/>
</radialGradient>
<path fill="url(#SVGID_2_)" d="M30.489,2.539c-15.411,0-27.95,12.542-27.95,27.956c0,15.412,12.539,27.95,27.95,27.95
	c15.413,0,27.952-12.538,27.952-27.95C58.44,15.082,45.901,2.539,30.489,2.539z"/>
<linearGradient id="SVGID_3_" gradientUnits="userSpaceOnUse" x1="30.4927" y1="42.8086" x2="30.4927" y2="18.1802">
	<stop  offset="0" style="stop-color:#040000"/>
	<stop  offset="1" style="stop-color:#5B5B69"/>
</linearGradient>
<path fill="url(#SVGID_3_)" d="M35.886,30.497l5.811-5.812c1.483-1.484,1.483-3.9,0-5.388c0,0,0,0-0.006-0.004
	c-1.482-1.481-3.899-1.481-5.386,0l-5.812,5.812l-5.813-5.812c-1.486-1.484-3.901-1.484-5.39,0
	c-1.484,1.488-1.484,3.904-0.003,5.392l5.814,5.812l-5.811,5.807c-1.484,1.485-1.484,3.904-0.003,5.389
	c1.492,1.487,3.907,1.487,5.393,0.004l5.813-5.813l5.809,5.813c1.487,1.482,3.906,1.483,5.389,0
	c0.006-0.004,0.006-0.004,0.006-0.004c1.483-1.484,1.483-3.903,0-5.389L35.886,30.497z"/>
<path fill="#FFFFFF" d="M32.288,30.491l7.608-7.605c0.494-0.497,0.494-1.303,0-1.8c-0.497-0.494-1.303-0.494-1.8,0l-7.606,7.608
	l-7.609-7.608c-0.493-0.494-1.299-0.494-1.795,0.003c-0.498,0.494-0.498,1.299,0,1.796l7.605,7.605l-7.605,7.609
	c-0.498,0.493-0.498,1.299,0,1.796c0.496,0.496,1.302,0.496,1.795,0l7.609-7.605l7.606,7.605c0.497,0.496,1.303,0.496,1.8,0
	c0.494-0.497,0.494-1.3,0-1.796L32.288,30.491z"/>
<path fill="#FFFFFF" d="M30.489,4.854c15,0,27.275,11.881,27.919,26.727c0.019-0.406,0.032-0.814,0.032-1.225
	c0-15.412-12.539-27.951-27.951-27.951c-15.413,0-27.951,12.54-27.951,27.951c0,0.411,0.014,0.819,0.031,1.225
	C3.213,16.734,15.488,4.854,30.489,4.854z"/>
</svg>
